<svg id="レイヤー_1" data-name="レイヤー 1" xmlns="http://www.w3.org/2000/svg" viewBox="0 0 1920 1080"><defs><style>.cls-1{fill:none;stroke:#000;stroke-width:0.3px;}</style></defs><title>アートボード 1</title><polyline class="cls-1" points="52.98 1008 78.5 1008 78.5 1042.02"/><polyline class="cls-1" points="87 1042.02 87 1016.5 52.98 1016.5"/><polyline class="cls-1" points="52.98 61 78.5 61 78.5 26.98"/><polyline class="cls-1" points="87 26.98 87 52.5 52.98 52.5"/><polyline class="cls-1" points="1881.02 61 1855.5 61 1855.5 26.98"/><polyline class="cls-1" points="1847 26.98 1847 52.5 1881.02 52.5"/><polyline class="cls-1" points="1881.02 1008 1855.5 1008 1855.5 1042.02"/><polyline class="cls-1" points="1847 1042.02 1847 1016.5 1881.02 1016.5"/><line class="cls-1" x1="51" y1="534.5" x2="75" y2="534.5"/><line class="cls-1" x1="69" y1="498.5" x2="69" y2="570.5"/><line class="cls-1" x1="1883" y1="534.5" x2="1859" y2="534.5"/><line class="cls-1" x1="1865" y1="570.5" x2="1865" y2="498.5"/><line class="cls-1" x1="931" y1="43" x2="1003" y2="43"/><line class="cls-1" x1="967" y1="25" x2="967" y2="49"/><line class="cls-1" x1="1003" y1="1026" x2="931" y2="1026"/><line class="cls-1" x1="967" y1="1044" x2="967" y2="1020"/></svg>